<?xml version="1.0" encoding="utf-8"?>
<!-- Generator: Adobe Illustrator 24.0.0, SVG Export Plug-In . SVG Version: 6.00 Build 0)  -->
<svg version="1.1" id="outline" xmlns="http://www.w3.org/2000/svg" xmlns:xlink="http://www.w3.org/1999/xlink" x="0px" y="0px"
	 viewBox="0 0 512 512" enable-background="new 0 0 512 512" xml:space="preserve">
<path d="M416.305,262.993c-2.242-10.35-8.846-19.22-18.119-24.336c-8.442-4.658-18.261-5.746-27.372-3.254
	c-0.078-1.262-0.191-2.529-0.384-3.804c-0.011-0.073-0.023-0.147-0.037-0.22l-0.233-1.291
	c-2.151-11.939-10.047-22.022-21.123-26.972c-6.109-2.729-12.772-3.701-19.275-2.929l20.796-145.856
	c2.417-16.955-8.793-33.11-25.521-36.78l-3.566-0.782c-17.359-3.804-34.873,7.152-39.034,24.434l-35.074,145.647l-41.881-125.07
	c-5.688-16.986-24.189-26.352-41.249-20.88c-15.313,4.914-24.784,20.036-22.521,35.958l29.837,209.866
	c3.636,25.574,1.579,52.153-5.95,76.863l-2.731,8.964c-10.949,35.937,0.284,75.097,28.619,99.764
	c17.414,15.16,39.817,23.444,62.721,23.444c3.419,0,6.852-0.185,10.277-0.559l2.826-0.309c19.329-2.11,37.321-9.945,52.031-22.658
	c14.711-12.713,25.07-29.38,29.958-48.2c0.523-2.014,1.14-4.034,1.832-6.003l25.524-72.542c0.01-0.028,0.015-0.056,0.025-0.083
	c8.535-6.903,15.776-15.129,21.524-24.523l11.463-18.733C416.869,290.381,419.226,276.476,416.305,262.993z M342.51,217.724
	c6.242,2.79,10.692,8.472,11.904,15.202l0.212,1.175c0.659,4.46,0.177,8.805-1.325,11.935c-0.035,0.072-20.794,46.884-20.794,46.884
	c-2.214,4.995-6.024,9.042-10.816,11.58c-2.586-0.956-5.304-1.649-8.129-2.03c-5.689-0.766-11.348-1.774-16.968-2.983
	c-0.063-0.094-0.119-0.191-0.186-0.284c-2.426-3.317-3.708-7.242-3.708-11.351c0-10.093,1.876-19.972,5.575-29.363l8.049-20.434
	c3.541-8.987,10.319-16.168,19.086-20.222C330.83,215.33,337.062,215.29,342.51,217.724z M336.039,412.719
	c-0.841,2.392-1.59,4.845-2.225,7.292c-8.239,31.718-35.662,55.418-68.24,58.975l-2.826,0.309
	c-21.952,2.392-44.1-4.546-60.756-19.047c-23.583-20.531-32.932-53.124-23.819-83.033l2.732-8.964
	c8.206-26.933,10.449-55.903,6.485-83.778L157.553,74.604c-1.163-8.179,3.702-15.946,11.568-18.47
	c8.759-2.811,18.266,2,21.188,10.725l50.725,151.479c1.133,3.383,4.366,5.605,7.933,5.453c3.564-0.155,6.595-2.651,7.431-6.12
	l41.595-172.723c2.138-8.876,11.132-14.507,20.051-12.551l3.566,0.782c8.593,1.885,14.352,10.184,13.11,18.893l-22.03,154.508
	c-9.604,6.021-17.036,14.915-21.25,25.611l-8.049,20.434c-4.438,11.266-6.688,23.118-6.688,35.227c0,2.238,0.233,4.439,0.641,6.597
	c-20.193-6.262-39.527-15.36-57.126-26.98l-5.641-3.725c-3.686-2.435-8.649-1.419-11.084,2.268s-1.419,8.649,2.268,11.084
	l5.641,3.725c29.913,19.751,64.502,32.721,100.027,37.506c11.064,1.491,19.408,11.034,19.408,22.198
	c0,6.29-2.536,12.114-7.142,16.398s-10.597,6.397-16.871,5.941c0,0-37.673-1.547-88.709-15.631c-4.26-1.175-8.675,1.25-9.888,5.498
	s1.25,8.676,5.498,9.888c29.78,8.497,60.542,13.936,91.434,16.167l0.514,0.037c0.915,0.066,1.828,0.099,2.74,0.099
	c9.657,0,19.072-3.671,26.182-10.285c4.507-4.193,7.891-9.399,9.949-15.1c2.785,0.679,5.601,1.015,8.399,1.015
	c1.217,0,2.429-0.07,3.633-0.196L336.039,412.719z M396.021,293.796l-11.463,18.733c-5.268,8.608-12.024,16.056-20.082,22.136
	c-4.636,3.497-10.527,4.708-16.166,3.325c-0.542-0.133-1.075-0.298-1.602-0.477c-0.713-9.017-4.586-17.263-10.574-23.521
	c4.697-3.918,8.472-8.885,11-14.586l19.834-44.727c1.1-0.657,4.185-2.361,4.185-2.361c6.1-3.085,13.317-2.955,19.304,0.348
	c5.226,2.883,8.947,7.882,10.21,13.715C402.713,275.821,401.062,285.557,396.021,293.796z"/>
</svg>
